<svg xmlns="http://www.w3.org/2000/svg" viewBox="0 0 31 20"><path d="M30.5,1A.5.5,0,0,0,30,.5H1A.5.5,0,0,0,.5,1V19a.5.5,0,0,0,.5.5H30a.5.5,0,0,0,.5-.5Zm-1,17.5H1.5V1.5h28Z" stroke="#000" stroke-miterlimit="10"/><path d="M4.55,15.72A.52.52,0,0,0,5,16a.47.47,0,0,0,.25-.07l8.68-5,2,1.58h0a.41.41,0,0,0,.54,0h0l2-1.58,8.69,5a.45.45,0,0,0,.25.07.5.5,0,0,0,.25-.93L19.4,10.25l8.4-6.64a.5.5,0,0,0,.08-.7.49.49,0,0,0-.7-.08L16.24,11.47,5.3,2.83a.49.49,0,0,0-.7.08.49.49,0,0,0,.08.7l8.4,6.64L4.74,15A.5.5,0,0,0,4.55,15.72Z" stroke="#000" stroke-miterlimit="10" stroke-width="0.5"/></svg>