<?xml version="1.0" encoding="utf-8"?><svg viewBox="0 0 512 512" xmlns="http://www.w3.org/2000/svg" xmlns:xlink="http://www.w3.org/1999/xlink"><style>:root>svg{display:none}:root>svg:target{display:block}</style><svg viewBox="0 0 29.11 28.88" id="add-to-cart" xmlns="http://www.w3.org/2000/svg"><path d="M28.54 13.25a.53.53 0 00-.35-.25L9.88 10.32a.5.5 0 10-.15 1l17.7 2.85-3 8.34h-13L6.15 8.82a.5.5 0 00-.47-.32H1.5c-.28 0-1-.28-1 0V10a.5.5 0 001 0v-.5h3.84l5.22 13.68a.51.51 0 00.47.32h13.75c.21 0 .4-.38.47-.58l3.33-9.12a.8.8 0 00-.04-.55zM14.29 23.57a2.53 2.53 0 102.53 2.53 2.52 2.52 0 00-2.53-2.53zm0 4.06a1.53 1.53 0 111.53-1.53 1.53 1.53 0 01-1.53 1.53zM21.52 23.57A2.53 2.53 0 1024 26.1a2.53 2.53 0 00-2.48-2.53zm0 4.06A1.53 1.53 0 1123 26.1a1.53 1.53 0 01-1.48 1.53zM21 5.5h2.5V8a.5.5 0 001 0V5.5H28a.5.5 0 000-1h-3.5V1a.5.5 0 00-1 0v3.5H21a.5.5 0 000 1z"/></svg><svg viewBox="0 0 29 20.78" id="cart" xmlns="http://www.w3.org/2000/svg"><path d="M28 6.28h-4c0-1-.05-.41-.12-.47l-5-5.13a.51.51 0 00-.71-.06.81.81 0 000 .92l4.53 4.74H6.82l4.52-4.77a.65.65 0 000-.83.51.51 0 00-.71-.06l-5 5.22c-.06.06-.1-.56-.12.44H1a.5.5 0 00-.5.5.5.5 0 00.5.5h1.87L5.5 19.89a.49.49 0 00.49.39h17.5a.49.49 0 00.49-.4l2.42-12.6H28a.5.5 0 00.5-.5.5.5 0 00-.5-.5zm-4.92 13H6.39l-2.49-12h21.48z"/></svg><svg viewBox="0 0 5.78 11" id="facebook" xmlns="http://www.w3.org/2000/svg"><path fill-rule="evenodd" d="M3.87 11H1.55V5.5H0V3.6h1.55V2.487C1.55.941 2.02 0 4.07 0h1.71v1.9H4.71c-.8 0-.84.265-.84.759V3.6h1.92l-.23 1.9H3.87V11z"/></svg><svg viewBox="0 0 12.31 11" id="google" xmlns="http://www.w3.org/2000/svg"><path fill-rule="evenodd" d="M6.72 0H3.5A2.761 2.761 0 00.7 2.5a2.389 2.389 0 002.45 2.475c.1 0 .2 0 .3-.01a1.4 1.4 0 00-.17.637 1.373 1.373 0 00.44.941c-.18 0-.36.006-.56.006-1.78 0-3.16 1.2-3.16 2.454 0 1.231 1.51 2 3.3 2 2.04 0 3.16-1.224 3.16-2.454a2.41 2.41 0 00-1.12-2.214 2.15 2.15 0 01-.85-1.06 1.131 1.131 0 01.62-.975 2.334 2.334 0 00.91-1.779A2.066 2.066 0 004.98.553H6zM5.59 8.334a1.37 1.37 0 01.04.351c0 .994-.6 1.771-2.34 1.771a1.963 1.963 0 01-2.13-1.822 2.154 2.154 0 012.35-1.772 2.139 2.139 0 012.08 1.472zM3.62 4.625a2.273 2.273 0 01-1.77-2.134C1.71 1.338 2.27.456 3.1.482a2.227 2.227 0 011.76 2.1C5 3.738 4.44 4.651 3.62 4.625zM10 2.441V0h-.77v2.441H6.92v.814h2.31V5.7H10V3.255h2.31v-.814H10z"/></svg><svg viewBox="0 0 10.84 11" id="instagram" xmlns="http://www.w3.org/2000/svg"><path fill-rule="evenodd" d="M9.04 0H1.78a1.818 1.818 0 00-1.8 1.826v7.348A1.819 1.819 0 001.78 11h7.26a1.819 1.819 0 001.8-1.826V1.826A1.818 1.818 0 009.04 0zM3.46 4.812h3.9a1.967 1.967 0 01.12.688 2.07 2.07 0 11-4.14 0 1.967 1.967 0 01.12-.688zm6.02 0v4.124a.682.682 0 01-.68.688H2.02a.682.682 0 01-.68-.687V4.813H2.4a3.09 3.09 0 106.02 0h1.06zm0-2.407a.341.341 0 01-.34.344h-.68a.339.339 0 01-.33-.344v-.686a.339.339 0 01.33-.344h.68a.341.341 0 01.34.344v.688z"/></svg><svg viewBox="0 0 30.25 24.08" id="like" xmlns="http://www.w3.org/2000/svg"><path d="M22 .3a8 8 0 00-6.84 3.81A8.07 8.07 0 008.28.25a8.09 8.09 0 00-8 8.15c0 2 .76 3.31 1.91 5.26a.59.59 0 00.1.17l12.5 9.83a.52.52 0 00.37.16.53.53 0 00.38-.16L28 13.84a.51.51 0 00.09-.16c1.15-2 1.92-3.26 1.92-5.29A8.07 8.07 0 0022 .3zm5.2 12.94l-12 9.35-12.12-9.35-.08-.09c-1.15-1.94-1.78-3-1.78-4.75a7.1 7.1 0 017-7.15 7.05 7.05 0 016.39 4.13.5.5 0 00.91 0A7 7 0 0129 8.39c0 1.75-.63 2.82-1.83 4.85z"/></svg><svg viewBox="0 0 31 20" id="mail" xmlns="http://www.w3.org/2000/svg"><path d="M30.5 1a.5.5 0 00-.5-.5H1a.5.5 0 00-.5.5v18a.5.5 0 00.5.5h29a.5.5 0 00.5-.5zm-1 17.5h-28v-17h28z"/><path d="M4.55 15.72A.52.52 0 005 16a.47.47 0 00.25-.07l8.68-5 2 1.58a.41.41 0 00.54 0l2-1.58 8.69 5a.45.45 0 00.25.07.5.5 0 00.25-.93l-8.26-4.82 8.4-6.64a.5.5 0 00.08-.7.49.49 0 00-.7-.08l-10.94 8.64L5.3 2.83a.49.49 0 00-.7.08.49.49 0 00.08.7l8.4 6.64L4.74 15a.5.5 0 00-.19.72z"/></svg><svg viewBox="0 0 30.5 30.5" id="phone" xmlns="http://www.w3.org/2000/svg"><path d="M7.88 30.25H2.63a2.38 2.38 0 01-2.38-2.37V2.63A2.39 2.39 0 012.63.25h5.25a2.38 2.38 0 012.37 2.38v25.25a2.38 2.38 0 01-2.37 2.37zm-5.25-29a1.38 1.38 0 00-1.38 1.38v25.25a1.38 1.38 0 001.38 1.37h5.25a1.38 1.38 0 001.37-1.37V2.63a1.38 1.38 0 00-1.37-1.38z"/><path d="M29.75 29.25h-20a.5.5 0 01-.5-.5v-27a.5.5 0 01.5-.5h20a.5.5 0 01.5.5v27a.5.5 0 01-.5.5zm-19.5-1h19v-26h-19z"/><path d="M25.75 11.25h-12a.5.5 0 01-.5-.5v-5a.5.5 0 01.5-.5h12a.5.5 0 01.5.5v5a.5.5 0 01-.5.5zm-11.5-1h11v-4h-11zM17.75 24.75a.5.5 0 01-.5-.5v-11a.5.5 0 011 0v11a.5.5 0 01-.5.5zM21.75 24.75a.5.5 0 01-.5-.5v-11a.5.5 0 011 0v11a.5.5 0 01-.5.5z"/><path d="M25.25 17.25h-11a.5.5 0 010-1h11a.5.5 0 010 1zM25.25 21.25h-11a.5.5 0 010-1h11a.5.5 0 010 1z"/><path d="M25.75 25.25h-12a.5.5 0 01-.5-.5v-12a.5.5 0 01.5-.5h12a.5.5 0 01.5.5v12a.5.5 0 01-.5.5zm-11.5-1h11v-11h-11z"/></svg><svg viewBox="0 0 28.58 28.7" id="search" xmlns="http://www.w3.org/2000/svg"><path d="M27.66 25l-8-8a10.68 10.68 0 00-1.21-13.51 10.57 10.57 0 00-15 0 10.65 10.65 0 000 15 10.53 10.53 0 0013.46 1.26l8 8a1.86 1.86 0 001.32.55 1.9 1.9 0 001.33-.55l.1-.1a1.89 1.89 0 000-2.65zM4.18 17.81a9.67 9.67 0 010-13.62 9.58 9.58 0 0113.56 0 9.67 9.67 0 01.08 13.53l-.17.17a9.55 9.55 0 01-13.47-.08zM27 27l-.1.1a.9.9 0 01-1.24 0l-7.85-7.88.6-.6.08-.08.08-.08.58-.58L27 25.73A.88.88 0 0127 27z"/></svg><svg viewBox="0 0 29.33 26.5" id="share" xmlns="http://www.w3.org/2000/svg"><path d="M2.84 25.09a2.6 2.6 0 01-2.21-.87c-2-2.7 4.16-9.51 11-14.55S26.7.73 28.7 3.42a2.8 2.8 0 01.07 2.73.5.5 0 01-.93-.35A2.07 2.07 0 0027.9 4c-1.18-1.56-7.9.7-15.71 6.48S.26 22 1.43 23.62c.38.5 1.29.52 2 .44a.51.51 0 01.55.45.5.5 0 01-.45.55z"/><path d="M14.83 26.25a13 13 0 1113-13 13 13 0 01-13 13zm0-25a12 12 0 1012 12 12 12 0 00-12-12z"/><path d="M27 14H3a.51.51 0 01-.5-.5.5.5 0 01.5-.5h24a.5.5 0 01.5.5.5.5 0 01-.5.5zM25 21H5a.51.51 0 01-.5-.5.5.5 0 01.5-.5h20a.5.5 0 01.5.5.5.5 0 01-.5.5zM24 6H5a.51.51 0 01-.5-.5A.5.5 0 015 5h19a.5.5 0 01.5.5.5.5 0 01-.5.5z"/><path d="M14.83 26.18a.5.5 0 01-.28-.91 14.43 14.43 0 006-12 14.4 14.4 0 00-6-12 .51.51 0 01-.14-.7.5.5 0 01.69-.16 15.42 15.42 0 016.48 12.85 15.44 15.44 0 01-6.47 12.84.5.5 0 01-.28.08z"/><path d="M14.83 26.18a.48.48 0 01-.28-.08 15.44 15.44 0 01-6.47-12.84A15.44 15.44 0 0114.55.41a.5.5 0 01.55.84 14.42 14.42 0 00-6 12 14.43 14.43 0 006 12 .5.5 0 01.13.69.47.47 0 01-.4.24z"/></svg><svg viewBox="0 -10 511.987 511" id="star" xmlns="http://www.w3.org/2000/svg"><path d="M114.594 491.14c-5.61 0-11.18-1.75-15.934-5.187a27.223 27.223 0 01-10.582-28.094l32.938-145.09L9.312 214.81a27.188 27.188 0 01-7.976-28.907 27.208 27.208 0 0123.402-18.71l147.797-13.419L230.97 17.027C235.277 6.98 245.089.492 255.992.492s20.715 6.488 25.024 16.512l58.433 136.77 147.774 13.417c10.882.98 20.054 8.344 23.425 18.711 3.372 10.368.254 21.739-7.957 28.907L390.988 312.75l32.938 145.086c2.414 10.668-1.727 21.7-10.578 28.098-8.832 6.398-20.61 6.89-29.91 1.3l-127.446-76.16-127.445 76.203c-4.309 2.559-9.11 3.864-13.953 3.864zm141.398-112.874c4.844 0 9.64 1.3 13.953 3.859l120.278 71.938-31.086-136.942a27.21 27.21 0 018.62-26.516l105.473-92.5-139.543-12.671a27.18 27.18 0 01-22.613-16.493L255.992 39.895 200.844 168.96c-3.883 9.195-12.524 15.512-22.547 16.43L38.734 198.062l105.47 92.5c7.554 6.614 10.858 16.77 8.62 26.54l-31.062 136.937 120.277-71.914c4.309-2.559 9.11-3.86 13.953-3.86zm-84.586-221.848s0 .023-.023.043zm169.13-.063l.023.043c0-.023 0-.023-.024-.043zm0 0"/></svg><svg viewBox="0 0 512.002 512.002" id="star-fill" xmlns="http://www.w3.org/2000/svg"><path d="M511.267 197.258a14.995 14.995 0 00-12.107-10.209l-158.723-23.065-70.985-143.827a14.998 14.998 0 00-26.901 0l-70.988 143.827-158.72 23.065a14.998 14.998 0 00-8.312 25.585l114.848 111.954-27.108 158.083a14.999 14.999 0 0021.763 15.812l141.967-74.638 141.961 74.637a15 15 0 0021.766-15.813l-27.117-158.081 114.861-111.955a14.994 14.994 0 003.795-15.375z"/></svg><svg viewBox="0 0 13.03 11" id="twitter" xmlns="http://www.w3.org/2000/svg"><path fill-rule="evenodd" d="M13.04 1.3a5.238 5.238 0 01-1.54.438A2.788 2.788 0 0012.68.201a5.256 5.256 0 01-1.7.674 2.625 2.625 0 00-1.95-.877 2.722 2.722 0 00-2.67 2.778 3.281 3.281 0 00.06.633A7.5 7.5 0 01.91.509a2.848 2.848 0 00-.36 1.4 2.8 2.8 0 001.19 2.312 2.578 2.578 0 01-1.21-.347V3.9a2.752 2.752 0 002.15 2.723 2.676 2.676 0 01-.71.1 2.523 2.523 0 01-.5-.05 2.692 2.692 0 002.49 1.929A5.211 5.211 0 01.64 9.791a5.1 5.1 0 01-.63-.039A7.36 7.36 0 004.11 11a7.715 7.715 0 007.6-7.9c0-.12 0-.24-.01-.36a5.463 5.463 0 001.34-1.44z"/></svg><svg viewBox="0 0 27.84 28.89" id="user" xmlns="http://www.w3.org/2000/svg"><path d="M13.81 21.77c-5.27 0-10-6.53-10-8V8.89a.5.5 0 01.5-.5.51.51 0 01.5.5v4.88c0 1 4.31 7 9 7s9-6 9-7V8.89a.5.5 0 01.5-.5.51.51 0 01.5.5v4.88c0 1.47-4.74 8-10 8z"/><path d="M27.09 28.64a.5.5 0 01-.5-.5c0-4.62-2.28-8.25-5.18-8.25h-2.6a.5.5 0 01-.5-.5.5.5 0 01.5-.5h2.6c3.52 0 6.18 4 6.18 9.25a.5.5 0 01-.5.5zM.75 28.64a.5.5 0 01-.5-.5c0-5.27 2.56-9.25 6-9.25h2.6a.51.51 0 01.5.5.5.5 0 01-.5.5H6.21c-2.78 0-5 3.63-5 8.25a.5.5 0 01-.46.5zM6.54 11.77a.51.51 0 01-.35-.15C3.12 8.55 4 6.88 4.51 5.77A2.07 2.07 0 004.79 5c0-1.58 2-4.25 9.25-4.25a21.69 21.69 0 014 .33 3.45 3.45 0 012.2-.85 2.35 2.35 0 011.66.68.53.53 0 01.11.55.5.5 0 01-.47.31.65.65 0 00-.6.28c1.73.9 2.35 2.1 2.35 3a3.55 3.55 0 00.31 1 3.52 3.52 0 01.31 2.85 3.38 3.38 0 01-2.21 1.64.41.41 0 01-.16 0 6.53 6.53 0 01-5.07-3c-2.29 3.3-8.99 4.23-9.93 4.23zm7.5-10C7.28 1.77 5.79 4.11 5.79 5a2.68 2.68 0 01-.38 1.2c-.49 1-1 2.09 1.34 4.54 1.73-.1 8.24-1.41 9.32-4.65a.51.51 0 01.55-.34.5.5 0 01.42.5c0 .87 2.14 3.19 4.42 3.25A2.44 2.44 0 0023 8.43a2.73 2.73 0 00-.32-2A3.87 3.87 0 0122.29 5c0-.59-.57-1.54-2.18-2.26a.48.48 0 01-.28-.54 1.78 1.78 0 01.47-1 2.36 2.36 0 00-1.74.8.5.5 0 01-.48.15A20.21 20.21 0 0014 1.77z"/><path d="M21.31 14.89h-5a.5.5 0 01-.5-.5v-4a.5.5 0 01.5-.5h5a.51.51 0 01.5.5v4a.5.5 0 01-.5.5zm-4.5-1h4v-3h-4zM12.31 14.89h-5a.5.5 0 01-.5-.5v-2.5a.5.5 0 01.5-.5.51.51 0 01.5.5v2h4v-3h-1a.5.5 0 01-.5-.5.5.5 0 01.5-.5h1.5a.51.51 0 01.5.5v4a.5.5 0 01-.5.5z"/><path d="M15.81 12.89h-3a.5.5 0 01-.5-.5.5.5 0 01.5-.5h3a.51.51 0 01.5.5.5.5 0 01-.5.5z"/></svg></svg>